<svg width="91" height="26" viewBox="0 0 91 26" fill="none" xmlns="http://www.w3.org/2000/svg">
<path d="M9.52135 25.5C14.1652 25.5 17.1248 22.7449 17.4376 18.8229H13.275C12.902 20.808 11.4703 21.9509 9.55745 21.9509C6.83849 21.9509 5.08199 19.6771 5.08199 15.8994C5.08199 12.1699 6.87458 9.93215 9.55745 9.93215C11.6508 9.93215 12.9381 11.2796 13.275 13.0602H17.4376C17.1369 9.0539 14.0088 6.41915 9.49729 6.41915C4.08343 6.41915 0.666687 10.3292 0.666687 15.9716C0.666687 21.5659 3.99922 25.5 9.52135 25.5Z" fill="white"/>
<path d="M23.675 0.5H19.3198V25.1391H23.675V0.5Z" fill="white"/>
<path d="M34.6405 25.5C38.9475 25.5 41.9071 23.3946 42.677 20.1824L38.6106 19.7252C38.0211 21.2892 36.5774 22.1073 34.7006 22.1073C31.8854 22.1073 30.0206 20.2546 29.9845 17.0905H42.8575V15.7551C42.8575 9.27045 38.9595 6.41915 34.4119 6.41915C29.1183 6.41915 25.6655 10.3051 25.6655 16.0077C25.6655 21.8065 29.0702 25.5 34.6405 25.5ZM29.9966 14.155C30.1289 11.7969 31.8734 9.81184 34.472 9.81184C36.9744 9.81184 38.6587 11.6405 38.6828 14.155H29.9966Z" fill="white"/>
<path d="M60.8249 6.65977H56.193L51.9341 20.3869H51.7416L47.4948 6.65977H42.8509L49.4317 25.1391H54.244L60.8249 6.65977Z" fill="white"/>
<path d="M69.697 25.5C74.004 25.5 76.9636 23.3946 77.7336 20.1824L73.6672 19.7252C73.0777 21.2892 71.634 22.1073 69.7572 22.1073C66.942 22.1073 65.0772 20.2546 65.0411 17.0905H77.914V15.7551C77.914 9.27045 74.0161 6.41915 69.4684 6.41915C64.1749 6.41915 60.722 10.3051 60.722 16.0077C60.722 21.8065 64.1267 25.5 69.697 25.5ZM65.0531 14.155C65.1855 11.7969 66.9299 9.81184 69.5286 9.81184C72.031 9.81184 73.7153 11.6405 73.7394 14.155H65.0531Z" fill="white"/>
<path d="M79.9045 25.1391H84.2597V14.2753C84.2597 11.9293 86.0282 10.269 88.4223 10.269C89.1562 10.269 90.0706 10.4013 90.4435 10.5217V6.5154C90.0465 6.44322 89.3607 6.39509 88.8795 6.39509C86.7621 6.39509 84.9936 7.59817 84.3198 9.73965H84.1273V6.65977H79.9045V25.1391Z" fill="white"/>
</svg>
